<!DOCTYPE svg PUBLIC "-//W3C//DTD SVG 1.1//EN" "http://www.w3.org/Graphics/SVG/1.1/DTD/svg11.dtd">
<!-- Uploaded to: SVG Repo, www.svgrepo.com, Transformed by: SVG Repo Mixer Tools -->
<svg fill="#616161" width="800px" height="800px" viewBox="0 0 512 512" version="1.1" xml:space="preserve" xmlns="http://www.w3.org/2000/svg" xmlns:xlink="http://www.w3.org/1999/xlink" stroke="#616161">
<g id="SVGRepo_bgCarrier" stroke-width="0"/>
<g id="SVGRepo_tracerCarrier" stroke-linecap="round" stroke-linejoin="round"/>
<g id="SVGRepo_iconCarrier"> <g id="_x34_58_x2C__Brainstorm_x2C__creative_x2C__head_x2C__idea_x2C__thinking"> <g> <path d="M161.101,201.66c5.434,0,10.362,2.224,13.951,5.787l0.177,0.203 c3.462,3.563,5.585,8.416,5.585,13.748c0,5.436-2.198,10.364-5.762,13.928c-3.589,3.563-8.518,5.787-13.951,5.787 c-5.46,0-10.388-2.224-13.952-5.787l-0.202-0.203c-3.463-3.563-5.586-8.416-5.586-13.725c0-5.434,2.224-10.388,5.788-13.951 S155.641,201.66,161.101,201.66 M261.567,69.727L261.567,69.727l-0.178,0.328l-0.051,0.102l-0.024,0.05l-0.051,0.051l-0.455,0.936 l-0.051,0.051l-0.252,0.556l-0.051,0.127v0.024l-0.052,0.077l-0.354,0.909l-0.025,0.051L260,73.063 c-0.48,1.289-0.859,2.604-1.087,3.968l-0.025,0.051l-0.025,0.202v0.076l-0.05,0.278l0,0l-0.076,0.505v0.076l-0.026,0.025 l-0.024,0.254l0,0l-0.025,0.276v0.103l-0.025,0.126v0.075v0.051l-0.025,0.102v0.126l0,0v0.126l-0.025,0.455l-0.024,0.051v0.252 l0,0l-0.025,0.886l0.025,0.277v0.051v0.126v0.076v0.051v0.051v0.075l0.024,0.051v0.075v0.051c0.051,0.986,0.126,1.795,0.253,2.906 c0.025,0.203,0.051,0.379,0.051,0.582l0,0l-0.025,0.05v0.026v0.05v0.026v0.051v0.023v0.051v0.025l-0.025,0.051v0.025v0.05v0.026 l-0.024,0.051v0.025v0.051v0.023l-0.025,0.052v0.025l-0.025,0.05v0.025v0.025l-0.025,0.051v0.025l-0.026,0.025v0.051l-0.024,0.025 v0.051l-0.025,0.024l-0.025,0.051v0.024l-0.025,0.026v0.024l-0.025,0.051v0.025l-0.024,0.051l-0.025,0.025v0.025l-0.025,0.024 l-0.025,0.051v0.025l-0.025,0.025l-0.024,0.024l-0.025,0.051v0.025l-0.026,0.025l-0.025,0.025l-0.025,0.051l0,0l-0.05,0.051v0.024 l-0.051,0.051l0,0l-0.025,0.052h-0.025l-0.024,0.051v0.023l-0.051,0.025v0.025l-0.051,0.052l0,0l-0.051,0.05l0,0l-0.051,0.051l0,0 l-0.05,0.051l0,0l-0.051,0.051l-0.075,0.051l0,0l-0.051,0.023v0.025l-0.052,0.026l-0.126,0.102l0,0l-0.05,0.024L257.473,88 l-0.051,0.025l-0.051,0.025l-0.025,0.025l-0.051,0.025l0,0l-0.05,0.025l-0.025,0.025l-0.051,0.024l0,0l-0.05,0.026h-0.025 l-0.051,0.024l-0.025,0.025h-0.05l-0.025,0.025h-0.025l-0.051,0.024h-0.025l-0.051,0.026h-0.025l-0.101,0.05h-0.025l-0.05,0.025 h-0.025h-0.077l-0.05,0.025h-0.025l-0.076,0.025l0,0h-0.076l0,0l-0.455,0.051h-0.228c-1.086,0-2.148,0.076-3.209,0.202v0.024 l-0.556,0.076l0,0l-0.304,0.051l0,0l-0.278,0.051l0,0l-0.277,0.051l0,0l-0.278,0.075l0,0l-0.278,0.052l0,0l-0.278,0.074l0,0 l-0.278,0.051l0,0l-0.252,0.076h-0.025l-0.253,0.076l0,0l-0.278,0.076l0,0l-0.278,0.101l0,0l-0.531,0.177l0,0l-0.784,0.277 l-0.531,0.203l-0.505,0.202v0.024l-0.758,0.33l0,0l-0.253,0.125l0,0c-2.25,1.112-4.247,2.578-6.015,4.322 c-1.946,1.946-3.539,4.246-4.701,6.773l0,0c-0.227,0.506-0.43,1.037-0.631,1.567l-0.077,0.253l-0.101,0.277l0,0l-0.101,0.253l0,0 l-0.152,0.556l0,0l-0.075,0.254l-0.152,0.556l0,0l-0.077,0.277l-0.05,0.278l0,0l-0.076,0.277l-0.05,0.279l-0.051,0.277l0,0 l-0.101,0.557l0,0l-0.051,0.277l-0.05,0.303l0,0l-0.025,0.279l0,0l-0.051,0.277l-0.025,0.304l0,0l-0.024,0.278l-0.025,0.303l0,0 l-0.025,0.279l-0.025,0.303v0.277v0.304l-0.025,0.304v0.277c0,6.344,2.579,12.082,6.698,16.227l0.203,0.177l0.202,0.202 l0.203,0.177l0.202,0.202l0.202,0.177l0,0l0.203,0.177l0.202,0.178l0.228,0.177l0.202,0.177l0.227,0.177l0.203,0.152l0.227,0.177 l0.228,0.151l0.228,0.177l0.227,0.151l0,0l0.228,0.151l0.227,0.152l0.228,0.152l0,0l0.228,0.151l0.227,0.151h0.025l0.228,0.126 l0.228,0.152l0,0l0.252,0.126l0.228,0.151h0.025l0.227,0.126l0.253,0.127l0,0l0.252,0.126l0.253,0.126l0.252,0.103l0.253,0.126 l0.252,0.127l0.253,0.101l0.252,0.101l0,0l0.254,0.102l0,0l0.277,0.101l0,0l0.254,0.102l0.277,0.101l0.253,0.076l0,0l0.278,0.101 l0,0l0.252,0.076l0,0l0.278,0.076l0.278,0.101l0.253,0.076h0.025l0.252,0.076l0.278,0.05l0.278,0.077l0,0l0.278,0.049l0,0 l0.278,0.076l0,0l0.277,0.052l0,0l0.278,0.05l0,0l0.304,0.05l0,0l0.278,0.026l0,0l0.278,0.051l0,0l0.278,0.049l0,0l0.303,0.027 l0,0l0.278,0.023l0,0l0.304,0.026l0,0l0.278,0.025l0,0l0.303,0.024l0,0l0.277,0.026l0,0h0.304l0,0l0.278,0.024h0.026h0.278l0,0 h0.303l0,0h76.632l13.043-26.512c0.758-1.518,2.603-2.149,4.145-1.391c1.541,0.758,2.148,2.603,1.415,4.145l-11.702,23.758h23.455 h0.051h37.508c6.317,0,12.055-2.553,16.199-6.697c4.146-4.145,6.725-9.883,6.725-16.227c0-3.158-0.632-6.166-1.771-8.896 c-1.188-2.756-2.881-5.258-5.005-7.354c-0.833-0.733-1.236-1.87-1.011-3.009c0.204-0.934,0.38-1.869,0.457-2.754l0.024-0.102 c0.075-0.91,0.126-1.895,0.126-2.932c0-7.558-3.059-14.382-7.987-19.336c-4.954-4.928-11.778-7.986-19.31-7.986 c-1.845,0-3.613,0.178-5.308,0.506c-1.769,0.354-3.487,0.859-5.055,1.516c-0.531,0.203-1.087,0.279-1.668,0.203 c-1.693-0.278-2.831-1.87-2.578-3.539l0.254-2.198l0.074-2.198c0-7.559-3.058-14.383-7.986-19.336 c-4.953-4.928-11.777-7.986-19.311-7.986c-4.775,0-9.25,1.213-13.117,3.311l-0.101,0.076c-4.044,2.224-7.456,5.459-9.933,9.352 v0.051c-0.91,1.465-2.805,1.92-4.271,1.035c-1.77-1.086-3.689-1.945-5.736-2.527c-1.947-0.53-4.045-0.833-6.219-0.833 c-5.662,0-10.843,2.046-14.812,5.408c-4.068,3.438-6.899,8.265-7.809,13.749c-0.253,1.467-1.518,2.579-3.059,2.579l-0.48,0.024 c-6.318,0-12.056,2.553-16.201,6.674C263.815,66.34,262.578,67.957,261.567,69.727z M170.655,211.846 c-2.452-2.451-5.839-3.969-9.554-3.969c-3.741,0-7.128,1.518-9.554,3.969c-2.453,2.426-3.969,5.813-3.969,9.553 c0,3.666,1.466,6.977,3.792,9.402l0.177,0.127c2.426,2.451,5.813,3.969,9.554,3.969c3.715,0,7.102-1.518,9.554-3.969 c2.426-2.426,3.943-5.813,3.943-9.529c0-3.664-1.441-7-3.791-9.426L170.655,211.846z M277.01,158.264 c0.758-1.517,2.629-2.148,4.17-1.391c1.517,0.758,2.148,2.604,1.39,4.145l-16.353,33.212c-0.758,1.542-2.603,2.173-4.145,1.415 s-2.148-2.604-1.391-4.145L277.01,158.264z M326.699,79.938c0.759-1.517,2.604-2.148,4.146-1.416 c1.542,0.758,2.173,2.604,1.415,4.145l-16.352,33.237c-0.734,1.517-2.579,2.147-4.121,1.415c-1.541-0.758-2.173-2.604-1.415-4.146 L326.699,79.938z M245.998,173.707c0.759-1.543,2.628-2.175,4.146-1.416c1.542,0.758,2.173,2.628,1.415,4.17l-16.353,33.211 c-0.758,1.541-2.628,2.174-4.146,1.415c-1.542-0.758-2.173-2.628-1.415-4.145L245.998,173.707z M290.936,285.395 c0.203-1.693,1.744-2.932,3.438-2.73c1.693,0.178,2.907,1.72,2.729,3.438l-16.023,137.671c-0.203,1.693-1.744,2.933-3.438,2.73 c-1.693-0.203-2.933-1.744-2.729-3.438L290.936,285.395z M113.609,464.188c-1.719,0-3.108-1.391-3.108-3.109 c0-1.693,1.39-3.084,3.108-3.084h194.286c1.693,0,3.108,1.391,3.108,3.084c0,1.719-1.415,3.109-3.108,3.109H113.609z M227.371,485.999c-1.719,0-3.109-1.391-3.109-3.109s1.391-3.109,3.109-3.109h134.435c1.719,0,3.109,1.391,3.109,3.109 s-1.391,3.109-3.109,3.109H227.371z M375.58,485.999c-1.719,0-3.107-1.391-3.107-3.109s1.389-3.109,3.107-3.109h16.809 c1.692,0,3.109,1.391,3.109,3.109s-1.417,3.109-3.109,3.109H375.58z M105.952,485.342c-1.719,0-3.109-1.416-3.109-3.109 c0-1.719,1.391-3.108,3.109-3.108h63.691c1.719,0,3.109,1.39,3.109,3.108c0,1.693-1.391,3.109-3.109,3.109H105.952z M185.541,433.73h121.672c5.004-58.08,12.486-109.387,20.877-167.672c0.102-0.605,0.354-1.188,0.783-1.668 c16.909-18.375,28.561-39.807,33.919-61.847c5.055-20.801,4.523-42.157-2.401-61.999h-24.34l-21.457,43.6 c-0.758,1.541-2.604,2.174-4.146,1.416c-1.541-0.759-2.147-2.629-1.414-4.146l20.118-40.87h-73.575l0,0h-0.379l0,0l-0.379-0.024 l0,0h-0.379l0,0l-0.354-0.025l0,0l-0.379-0.025l0,0l-0.38-0.024l0,0l-0.354-0.026l0,0l-0.379-0.024l0,0l-0.354-0.051l0,0 l-0.379-0.025l0,0l-0.354-0.051l0,0l-0.354-0.075l0,0l-0.379-0.051l0,0l-0.354-0.051l0,0l-0.354-0.075l0,0l-0.354-0.076l0,0 l-0.354-0.076l0,0l-0.354-0.076l0,0l-0.354-0.075l0,0l-0.354-0.075l0,0l-0.354-0.102l-0.329-0.102l0,0l-0.354-0.101l0,0 l-0.329-0.103h-0.025l-0.328-0.1l0,0l-0.328-0.126l-0.354-0.103l-0.328-0.126l0,0l-0.329-0.126l0,0l-0.328-0.127l-0.329-0.126l0,0 l-0.329-0.151l-0.329-0.127l-0.328-0.151l-0.329-0.151l0,0l-0.303-0.152l0,0l-0.329-0.15l-0.304-0.152l-0.328-0.176l-0.303-0.153 l-0.303-0.177l-0.304-0.177l-0.304-0.177l-0.303-0.177l-0.303-0.177l-0.304-0.202l-0.304-0.177l-0.277-0.203l-0.278-0.201 l-0.304-0.203l-0.278-0.202l-0.278-0.202l-0.278-0.201l-0.277-0.229l-0.278-0.227l-0.278-0.203l-0.252-0.228l-0.278-0.228 l-0.252-0.228l-0.253-0.227l-0.278-0.253l-0.253-0.228l-0.252-0.253l-0.253-0.252c-5.257-5.283-8.543-12.563-8.543-20.6 l0.025-0.379v-0.354v-0.381l0.024-0.379l0,0l0.026-0.352v-0.027l0.025-0.354l0,0l0.025-0.379l0,0l0.025-0.354l0,0l0.05-0.379l0,0 l0.051-0.354l0,0l0.05-0.354v-0.025l0.051-0.354l0,0l0.051-0.354l0,0l0.05-0.354v-0.025l0.076-0.354l0,0l0.076-0.354l0,0 l0.076-0.354l0,0l0.075-0.355l0,0l0.076-0.328v-0.025l0.102-0.328v-0.025l0.076-0.328l0,0l0.101-0.354l0,0l0.102-0.328v-0.027 l0.101-0.328l0,0l0.126-0.328v-0.025l0.101-0.328l0,0l0.126-0.328c0.354-1.012,0.758-1.998,1.213-2.957l0,0 c0.505-1.063,1.087-2.099,1.719-3.059v-0.025c1.137-1.77,2.451-3.387,3.943-4.877c2.552-2.579,5.611-4.677,8.972-6.143h0.025 l0.556-0.228l0,0l0.859-0.328l0,0l0.278-0.126l0,0l0.278-0.103h0.026l0.581-0.177l0,0l0.278-0.1h0.025l0.278-0.103l0,0 l0.303-0.075l0,0l0.304-0.102l0,0l0.278-0.076h0.025l0.278-0.075h0.025l0.278-0.076h0.025l0.278-0.076h0.025l0.278-0.075h0.025 l0.303-0.051l0,0l0.303-0.076l0,0l0.304-0.051l0,0l0.303-0.05l0,0l0.329-0.05l0,0l0.303-0.051l0,0l0.304-0.051l0,0l0.329-0.051 l0,0l0.303-0.025l0,0l0.329-0.051l-0.051-1.339l0.025-1.112v-0.025l0.025-0.127v-0.176v-0.051v-0.102l0.025-0.277v-0.051v-0.152 l0.025-0.152l0,0v-0.15l0.025-0.178v-0.051v-0.101l0.025-0.151l0.025-0.304l0.025-0.177l0,0l0.024-0.151v-0.151l0.025-0.051 l0.026-0.252l0.025-0.127V77.03l0.075-0.479l0.025-0.152v-0.05l0.025-0.101l0.025-0.152l0.026-0.127v-0.024l0.024-0.151 l0.025-0.152v-0.024l0.025-0.126l0.025-0.153l0.025-0.075l0.025-0.076l0.102-0.455l0.024-0.151v-0.024l0.025-0.127l0.051-0.152 V74.2l0.025-0.075l0.05-0.152l0.025-0.127V73.82l0.051-0.15l0.024-0.152l0,0l0.051-0.151l0.051-0.151v-0.051l0.025-0.076 l0.05-0.151l0.025-0.126l0.025-0.025l0.025-0.152l0.05-0.15l0,0l0.051-0.127l0.05-0.152l0.025-0.076l0.077-0.227l0.024-0.102 v-0.025l0.102-0.303h0.025l0.025-0.152l0.025-0.051l0.025-0.075l0.025-0.051v-0.024l0.025-0.051l0.025-0.051l0.025-0.076 l0.025-0.075l0.025-0.051v-0.024l0.025-0.051l0.024-0.051l0.025-0.076l0.026-0.051l0.025-0.075v-0.026l0.025-0.051l0.024-0.049 l0.025-0.076l0.025-0.051l0.025-0.076l0.026-0.025v-0.025l0.024-0.076l0.025-0.049l0.025-0.077l0.025-0.076l0.025-0.024v-0.025 l0.05-0.051l0.025-0.076l0.025-0.076l0.05-0.1v-0.026l0.025-0.05l0.026-0.076l0.025-0.051l0.025-0.076l0.025-0.05h0.024 l0.025-0.077l0.025-0.049l0.026-0.076l0.025-0.051l0.024-0.076l0.025-0.051l0.051-0.051l0.025-0.076l0.025-0.049l0.025-0.077l0,0 l0.025-0.05l0.025-0.076l0.05-0.051l0.026-0.076l0.025-0.05v-0.025l0.025-0.051l0.05-0.05l0.025-0.076l0.025-0.051l0.025-0.05 l0.026-0.026l0.025-0.05l0.024-0.05l0.025-0.076l0.025-0.051l0.051-0.076l0,0l0.025-0.051l0.025-0.05l0.051-0.076l0.025-0.05 l0.025-0.076c-15.24-0.961-30.759,0.455-45.52,4.145c-15.999,4.043-31.138,10.768-44.104,20.094 c-49.589,35.662-49.235,74.383-48.982,101.68c0.126,12.561,0.228,22.873-4.297,30.178c-4.043,6.545-9.275,12.309-13.9,17.414 c-5.03,5.51-9.327,10.236-10.009,13.598c-0.582,2.855,2.704,5.282,13.396,7.48l1.339,0.253c1.265,0.253,1.997,0.379,3.412,0.935 l0.177,0.077c8.998,3.614,7.912,14.507,6.724,26.739c-0.456,4.551-0.936,9.326-0.86,13.725 c0.177,11.223,4.17,20.878,22.924,20.649l0.784,0.025c11.753,2.073,23.986,4.601,35.713,6.269 c1.314,0.227,2.375,1.314,2.552,2.705l5.131,42.637c1.289,10.818,1.719,21.636,2.098,31.063 C182.938,420.285,183.368,430.748,185.541,433.73z" style="fill-rule:evenodd;clip-rule:evenodd;"/> </g> </g> <g id="Layer_1"/> </g>
</svg>